<?xml version="1.0" encoding="UTF-8"?>
<svg id="Layer_1" data-name="Layer 1" xmlns="http://www.w3.org/2000/svg" viewBox="0 0 242.57 56.86">
  <defs>
    <style>
      .cls-1, .cls-2 {
        fill: #fff;
      }

      .cls-2 {
        fill-rule: evenodd;
      }

      .cls-3 {
        fill: #002e72;
        stroke: #fff;
        stroke-miterlimit: 10;
        stroke-width: 2px;
      }
    </style>
  </defs>
  <rect class="cls-3" x="1" y="1" width="240.57" height="54.86" rx="11.29" ry="11.29"/>
  <g>
    <path class="cls-2" d="M18.15,18.05h23.1l2.68,24.98h-15.26l.99-16.07-6.14,4.69-2.08-5.38,7.32-4.5,4.05-.05c2.79,4.54,7.22,2.16,7.45-1-.58,1.26-1.76,2.26-3.19,2.26-.4,0-.81-.08-1.18-.25-.73-.34-1.4-1.03-1.86-2.11l-.21-.49-5.31,.07-.4,.11-8.69,5.33,3.53,7.82,4.86-3.32-1.07,12.89H15.47l2.68-24.99h0Z"/>
    <path class="cls-1" d="M37.09,24.21v1.81h-12.17v-1.88l1.49-.91v1.31h9.2v-.4c.51,.15,1.01,.17,1.49,.09m-6.09-15.73c1.68,0,3.21,.68,4.31,1.79,1.1,1.1,1.79,2.62,1.79,4.31v8.4h-.03c-.4,0-.81-.08-1.18-.25-.09-.05-.19-.09-.28-.15V14.57c0-1.27-.52-2.42-1.35-3.26-.83-.83-1.98-1.35-3.26-1.35s-2.42,.52-3.26,1.35c-.83,.83-1.35,1.98-1.35,3.26v6.78l-1.49,.91v-7.7c0-1.68,.68-3.21,1.79-4.31,1.1-1.1,2.62-1.79,4.31-1.79h-.02l.02,.04Z"/>
    <path class="cls-1" d="M22.31,23.88V14.57c0-1.68,.68-3.21,1.79-4.31,.83-.83,1.88-1.41,3.07-1.66-.42,.27-.81,.58-1.18,.95-.93,.93-1.58,2.1-1.88,3.36-.2,.52-.31,1.07-.31,1.66v8.38l-1.49,.91h0v.02Zm1.6,2.14h-1.6v-.27l1.6-.99v1.26Zm10.49-2.49h-1.4v-1.49c.44,.65,.91,1.14,1.4,1.49Zm-.06-10.29c.09,.43,.15,.88,.15,1.35v6.91c-.17-.25-.32-.54-.46-.86l-.21-.49h-.83v-5.56c0-1.27-.52-2.42-1.35-3.26-.11-.11-.24-.23-.37-.33,.86,.07,1.66,.43,2.27,1.04,.35,.35,.61,.75,.79,1.19h0Z"/>
    <polygon class="cls-2" points="26.69 43.02 26.35 47.69 48.54 47.24 46.77 29.96 52.29 32.64 54.52 24.16 45.25 21.34 52.66 25.02 51.41 30.78 44.89 27.23 46.58 45.46 28.51 45.75 28.63 43.02 26.69 43.02"/>
  </g>
  <g>
    <path class="cls-1" d="M59.92,30.41c-.8,0-1.44-.24-1.9-.7-.47-.47-.7-1.1-.7-1.9V13.33c.21-.04,.53-.08,.98-.15s.87-.09,1.29-.09,.81,.03,1.14,.09c.33,.07,.6,.18,.83,.35s.4,.4,.51,.7,.17,.69,.17,1.18v11.05h6.41c.13,.21,.25,.48,.37,.83,.11,.35,.17,.71,.17,1.08,0,.74-.16,1.27-.48,1.58s-.73,.46-1.26,.46h-7.53Z"/>
    <path class="cls-1" d="M75.57,13.87c.32-.19,.8-.37,1.44-.54s1.29-.25,1.95-.25c.93,0,1.76,.13,2.47,.4,.71,.27,1.18,.7,1.38,1.27,.34,.97,.7,2.1,1.09,3.39,.4,1.29,.78,2.62,1.18,3.99s.77,2.73,1.15,4.05c.38,1.34,.7,2.51,.98,3.54-.23,.26-.56,.47-1.01,.63s-.98,.24-1.6,.24c-.45,0-.83-.04-1.14-.11s-.56-.19-.75-.34c-.2-.15-.36-.35-.48-.58-.12-.24-.23-.53-.32-.84l-.51-1.93h-5.06c-.15,.56-.3,1.14-.45,1.73-.15,.6-.3,1.18-.45,1.73-.26,.09-.54,.17-.83,.24s-.64,.09-1.05,.09c-.95,0-1.66-.16-2.12-.49s-.69-.78-.69-1.35c0-.26,.04-.53,.11-.78,.08-.26,.16-.56,.25-.92,.13-.51,.31-1.13,.55-1.87,.24-.74,.49-1.55,.77-2.42s.57-1.76,.89-2.67,.61-1.78,.89-2.59,.54-1.53,.77-2.17c.24-.63,.41-1.12,.55-1.46l.03,.02h.01Zm3.36,3.6c-.26,.78-.56,1.66-.88,2.62-.33,.96-.62,1.94-.88,2.93h3.47c-.26-1.01-.53-1.99-.8-2.95-.27-.96-.52-1.83-.74-2.59h-.17Z"/>
    <path class="cls-1" d="M101.68,30.77c-.32,0-.69,0-1.12-.03s-.87-.06-1.33-.11-.91-.12-1.35-.21c-.45-.08-.86-.2-1.23-.35-1.03-.4-1.54-1.07-1.54-2.04V14.96c0-.4,.1-.7,.32-.91,.22-.22,.51-.39,.88-.52,.63-.23,1.43-.39,2.38-.49s1.93-.15,2.94-.15c2.39,0,4.22,.4,5.51,1.2s1.93,2.04,1.93,3.73c0,.84-.24,1.56-.72,2.17-.49,.61-1.14,1.05-1.96,1.33,.93,.26,1.71,.73,2.33,1.43,.62,.69,.94,1.56,.94,2.61,0,1.84-.69,3.22-2.06,4.1s-3.35,1.33-5.92,1.33h0v-.02Zm-1.82-10.78h2.04c.8,0,1.38-.15,1.75-.45s.55-.73,.55-1.32c0-.51-.21-.9-.63-1.2s-1.05-.45-1.89-.45c-.28,0-.6,0-.97,.03-.37,.02-.65,.05-.86,.08v3.3h0Zm0,6.85c.26,.08,.59,.12,1.01,.15s.8,.04,1.18,.04c.74,0,1.36-.15,1.86-.46s.74-.79,.74-1.44c0-.61-.21-1.05-.61-1.32s-1.03-.4-1.87-.4h-2.3v3.41h0v.02Z"/>
    <path class="cls-1" d="M111.59,21.82c0-1.46,.23-2.75,.69-3.87,.46-1.12,1.08-2.06,1.87-2.81s1.72-1.33,2.8-1.72c1.07-.4,2.24-.58,3.48-.58s2.41,.2,3.48,.58c1.07,.4,2.01,.97,2.81,1.72s1.43,1.69,1.89,2.81,.69,2.41,.69,3.87-.23,2.75-.67,3.88c-.45,1.13-1.07,2.07-1.86,2.82s-1.73,1.33-2.81,1.72-2.26,.58-3.53,.58-2.45-.2-3.53-.6-2.01-.99-2.8-1.75c-.78-.76-1.4-1.7-1.84-2.82-.45-1.12-.67-2.4-.67-3.84h0Zm5.04,.01c0,1.69,.35,2.96,1.03,3.81,.69,.84,1.61,1.26,2.78,1.26s2.11-.42,2.79-1.26,1.03-2.11,1.03-3.81-.34-2.94-1.03-3.78c-.68-.84-1.61-1.26-2.78-1.26s-2.09,.41-2.78,1.24-1.05,2.1-1.05,3.79h.01Z"/>
    <path class="cls-1" d="M147.14,24.06c0,1.01-.17,1.93-.52,2.76s-.85,1.54-1.5,2.13-1.45,1.04-2.38,1.35c-.93,.32-1.98,.48-3.16,.48s-2.23-.16-3.16-.48c-.93-.32-1.72-.77-2.38-1.35-.65-.58-1.15-1.3-1.5-2.13-.35-.83-.52-1.75-.52-2.76V13.36c.21-.04,.54-.08,.98-.15,.45-.07,.87-.09,1.29-.09s.81,.04,1.14,.09c.33,.07,.6,.18,.83,.35s.4,.4,.51,.7,.17,.69,.17,1.18v8.53c0,.89,.24,1.6,.74,2.1,.5,.51,1.14,.75,1.92,.75s1.45-.25,1.93-.75,.72-1.2,.72-2.1V13.36c.21-.04,.54-.08,.98-.15,.45-.07,.87-.09,1.29-.09s.81,.04,1.14,.09c.33,.07,.6,.18,.83,.35s.4,.4,.51,.7,.17,.69,.17,1.18v8.62h-.03Z"/>
    <path class="cls-1" d="M149.91,17.28c-.13-.21-.25-.49-.37-.84-.11-.36-.17-.72-.17-1.12,0-.72,.16-1.25,.49-1.57s.75-.48,1.27-.48h12.2c.13,.21,.25,.49,.37,.84,.11,.36,.17,.72,.17,1.12,0,.72-.16,1.25-.49,1.57s-.75,.48-1.27,.48h-3.1v12.94c-.21,.06-.53,.11-.97,.17s-.87,.08-1.3,.08-.81-.04-1.14-.09c-.33-.07-.6-.18-.83-.35s-.4-.4-.51-.7c-.11-.3-.17-.69-.17-1.18v-10.88h-4.18Z"/>
    <path class="cls-1" d="M171.15,30.21c-.21,.06-.53,.11-.97,.17s-.87,.08-1.3,.08-.81-.04-1.14-.09c-.33-.07-.6-.18-.83-.35s-.4-.4-.51-.7c-.11-.3-.17-.69-.17-1.18V13.36c.21-.04,.54-.08,.98-.15,.45-.07,.87-.09,1.29-.09s.81,.04,1.14,.09c.33,.07,.6,.18,.83,.35s.4,.4,.51,.7,.17,.69,.17,1.18v14.78h0Z"/>
    <path class="cls-1" d="M173.95,21.82c0-1.46,.23-2.75,.69-3.87,.46-1.12,1.08-2.06,1.87-2.81s1.72-1.33,2.8-1.72c1.07-.4,2.24-.58,3.48-.58s2.41,.2,3.48,.58c1.07,.4,2.01,.97,2.81,1.72s1.43,1.69,1.89,2.81,.69,2.41,.69,3.87c0,1.83-.34,3.39-1.01,4.66-.67,1.28-1.59,2.28-2.75,3.01,.28,.13,.61,.27,1,.42s.78,.3,1.2,.45,.86,.29,1.3,.43c.45,.14,.87,.26,1.26,.38,.02,.11,.03,.21,.03,.29v.24c0,1.06-.27,1.83-.83,2.32-.55,.49-1.27,.72-2.17,.72s-1.75-.24-2.66-.71-1.84-1.16-2.8-2.06l-1.23-1.15h-.23c-1.27,0-2.45-.2-3.53-.6s-2.01-.99-2.8-1.75c-.78-.76-1.4-1.7-1.84-2.82-.45-1.12-.67-2.4-.67-3.84h.02Zm5.04,0c0,1.69,.35,2.96,1.03,3.81,.69,.84,1.61,1.26,2.78,1.26s2.11-.42,2.79-1.26,1.03-2.11,1.03-3.81-.34-2.94-1.03-3.78c-.68-.84-1.61-1.26-2.78-1.26s-2.09,.41-2.78,1.24-1.05,2.1-1.05,3.79h.01Z"/>
    <path class="cls-1" d="M209.55,24.06c0,1.01-.17,1.93-.52,2.76s-.85,1.54-1.5,2.13-1.45,1.04-2.38,1.35c-.93,.32-1.98,.48-3.16,.48s-2.23-.16-3.16-.48-1.72-.77-2.38-1.35c-.65-.58-1.15-1.3-1.5-2.13-.35-.83-.52-1.75-.52-2.76V13.36c.21-.04,.54-.08,.98-.15,.45-.07,.87-.09,1.29-.09s.81,.04,1.14,.09c.33,.07,.6,.18,.83,.35s.4,.4,.51,.7,.17,.69,.17,1.18v8.53c0,.89,.24,1.6,.74,2.1,.5,.51,1.14,.75,1.92,.75s1.45-.25,1.93-.75,.72-1.2,.72-2.1V13.36c.21-.04,.54-.08,.98-.15,.45-.07,.87-.09,1.29-.09s.81,.04,1.14,.09c.33,.07,.6,.18,.83,.35s.4,.4,.51,.7,.17,.69,.17,1.18v8.62h-.03Z"/>
    <path class="cls-1" d="M213.11,15.97c0-.8,.24-1.44,.7-1.9,.47-.47,1.1-.7,1.9-.7h9.24c.13,.21,.24,.48,.35,.81,.1,.34,.15,.69,.15,1.06,0,.71-.15,1.21-.46,1.51s-.71,.45-1.21,.45h-5.91v2.61h6.29c.13,.21,.24,.47,.35,.8s.15,.68,.15,1.05c0,.71-.15,1.21-.45,1.51s-.7,.45-1.2,.45h-5.15v2.94h7.2c.13,.21,.24,.48,.35,.81s.15,.69,.15,1.06c0,.71-.15,1.21-.46,1.52-.31,.31-.71,.46-1.21,.46h-8.18c-.8,0-1.44-.24-1.9-.7-.47-.47-.7-1.1-.7-1.9V15.97h0Z"/>
  </g>
  <g>
    <path class="cls-1" d="M71.4,39.07h-2.54v-.66h5.84v.66h-2.54v6.57h-.76s0-6.57,0-6.57Z"/>
    <path class="cls-1" d="M80.05,38.4h.76v7.22h-.76v-7.22Z"/>
    <path class="cls-1" d="M92.42,44.97v.66h-5.11v-7.22h4.96v.66h-4.2v2.57h3.73v.65h-3.73v2.68h4.35Z"/>
    <path class="cls-1" d="M104.38,38.4v7.22h-.63l-4.65-5.87v5.87h-.76v-7.22h.63l4.66,5.87v-5.87h.75Z"/>
    <path class="cls-1" d="M110.87,38.4h2.94c.76,0,1.44,.15,2.02,.46s1.03,.73,1.36,1.28c.32,.55,.49,1.18,.49,1.87s-.16,1.33-.49,1.87c-.32,.55-.78,.98-1.36,1.28-.58,.31-1.26,.46-2.02,.46h-2.94s0-7.22,0-7.22Zm2.9,6.57c.63,0,1.19-.12,1.67-.38,.47-.25,.85-.6,1.1-1.04,.26-.44,.4-.96,.4-1.53s-.13-1.09-.4-1.53-.63-.79-1.1-1.04-1.03-.38-1.67-.38h-2.14v5.91h2.14Z"/>
    <path class="cls-1" d="M127.97,43.7h-4.03l-.87,1.93h-.8l3.3-7.22h.75l3.3,7.22h-.81l-.87-1.93h.03Zm-.28-.62l-1.73-3.89-1.73,3.89h3.46Z"/>
    <path class="cls-1" d="M141.81,38.4h2.94c.76,0,1.44,.15,2.02,.46s1.03,.73,1.36,1.28c.32,.55,.49,1.18,.49,1.87s-.16,1.33-.49,1.87c-.32,.55-.78,.98-1.36,1.28-.58,.31-1.26,.46-2.02,.46h-2.94s0-7.22,0-7.22Zm2.9,6.57c.63,0,1.19-.12,1.67-.38,.47-.25,.85-.6,1.1-1.04,.26-.44,.4-.96,.4-1.53s-.13-1.09-.4-1.53-.63-.79-1.1-1.04-1.03-.38-1.67-.38h-2.14v5.91h2.14Z"/>
    <path class="cls-1" d="M159.58,44.97v.66h-5.11v-7.22h4.96v.66h-4.2v2.57h3.73v.65h-3.73v2.68h4.35Z"/>
    <path class="cls-1" d="M177.28,45.64l-1.66-2.32c-.19,.02-.38,.03-.57,.03h-1.94v2.3h-.76v-7.22h2.71c.92,0,1.65,.22,2.17,.66s.78,1.04,.78,1.82c0,.56-.14,1.04-.43,1.43s-.7,.67-1.22,.84l1.77,2.47h-.85Zm-.61-3.42c.38-.32,.56-.76,.56-1.34s-.19-1.03-.56-1.35-.92-.47-1.65-.47h-1.92v3.62h1.92c.71,0,1.26-.16,1.65-.47h0Z"/>
    <path class="cls-1" d="M185.16,45.21c-.58-.32-1.03-.76-1.36-1.32s-.49-1.19-.49-1.88,.16-1.33,.49-1.88,.78-1,1.36-1.32,1.23-.48,1.95-.48,1.36,.16,1.94,.47c.57,.32,1.03,.75,1.35,1.32,.33,.56,.5,1.19,.5,1.88s-.17,1.33-.5,1.88c-.33,.56-.78,1-1.35,1.32s-1.22,.47-1.94,.47-1.36-.16-1.95-.48c0,0,0,.02,0,.02Zm3.5-.59c.46-.25,.82-.61,1.08-1.07s.4-.97,.4-1.53-.13-1.07-.4-1.53-.62-.82-1.08-1.07-.98-.39-1.55-.39-1.09,.13-1.55,.39c-.46,.25-.83,.61-1.09,1.07s-.4,.97-.4,1.53,.13,1.07,.4,1.53,.63,.82,1.09,1.07,.98,.39,1.55,.39,1.09-.13,1.55-.39Z"/>
    <path class="cls-1" d="M201.61,39.07c.53,.44,.78,1.04,.78,1.82s-.26,1.37-.78,1.82c-.53,.43-1.25,.66-2.17,.66h-1.94v2.29h-.76v-7.22h2.71c.92,0,1.65,.22,2.17,.66h0v-.03Zm-.56,3.13c.38-.31,.56-.75,.56-1.33s-.19-1.03-.56-1.35-.92-.47-1.65-.47h-1.92v3.61h1.92c.71,0,1.26-.16,1.65-.47h0Z"/>
    <path class="cls-1" d="M212.35,43.7h-4.03l-.87,1.93h-.8l3.3-7.22h.75l3.3,7.22h-.81l-.87-1.93h.03Zm-.28-.62l-1.73-3.89-1.73,3.89h3.46Z"/>
  </g>
</svg>